<svg width="34" height="43" viewBox="0 0 34 43" fill="none" xmlns="http://www.w3.org/2000/svg">
<path d="M10.048 15.176C10.944 13.72 12.232 12.544 13.912 11.648C15.592 10.752 17.5147 10.304 19.68 10.304C22.256 10.304 24.5893 10.9573 26.68 12.264C28.7707 13.5707 30.4133 15.4373 31.608 17.864C32.84 20.2907 33.456 23.1093 33.456 26.32C33.456 29.5307 32.84 32.368 31.608 34.832C30.4133 37.2587 28.7707 39.144 26.68 40.488C24.5893 41.7947 22.256 42.448 19.68 42.448C17.4773 42.448 15.5547 42.0187 13.912 41.16C12.2693 40.264 10.9813 39.088 10.048 37.632V42H0.472V0.559999H10.048V15.176ZM23.712 26.32C23.712 23.9307 23.04 22.064 21.696 20.72C20.3893 19.3387 18.7653 18.648 16.824 18.648C14.92 18.648 13.296 19.3387 11.952 20.72C10.6453 22.1013 9.992 23.9867 9.992 26.376C9.992 28.7653 10.6453 30.6507 11.952 32.032C13.296 33.4133 14.92 34.104 16.824 34.104C18.728 34.104 20.352 33.4133 21.696 32.032C23.04 30.6133 23.712 28.7093 23.712 26.32Z" fill="#FC00EA"/>
</svg>
